<svg id="SvgjsSvg1019" width="288" height="288" xmlns="http://www.w3.org/2000/svg" version="1.1" xmlns:xlink="http://www.w3.org/1999/xlink" xmlns:svgjs="http://svgjs.com/svgjs"><defs id="SvgjsDefs1020"></defs><g id="SvgjsG1021" transform="matrix(1,0,0,1,0,0)"><svg xmlns="http://www.w3.org/2000/svg" data-name="Layer 1" viewBox="0 0 24 24" width="288" height="288"><path d="M20.9,2H3.1A1.1,1.1,0,0,0,2,3.1V20.9A1.1,1.1,0,0,0,3.1,22h9.58V14.25h-2.6v-3h2.6V9a3.64,3.64,0,0,1,3.88-4,20.26,20.26,0,0,1,2.33.12v2.7H17.3c-1.26,0-1.5.6-1.5,1.47v1.93h3l-.39,3H15.8V22h5.1A1.1,1.1,0,0,0,22,20.9V3.1A1.1,1.1,0,0,0,20.9,2Z" fill="#ffffff" class="color000 svgShape"></path></svg></g></svg>