<svg id="SvgjsSvg1001" width="288" height="288" xmlns="http://www.w3.org/2000/svg" version="1.1" xmlns:xlink="http://www.w3.org/1999/xlink" xmlns:svgjs="http://svgjs.com/svgjs"><defs id="SvgjsDefs1002"></defs><g id="SvgjsG1008" transform="matrix(1,0,0,1,0,0)"><svg xmlns="http://www.w3.org/2000/svg" viewBox="0 0 24 24" width="288" height="288"><g data-name="Layer 2" fill="#c2185b" class="color000 svgShape"><g data-name="email" fill="#c2185b" class="color000 svgShape"><rect width="24" height="24" opacity="0" fill="#c2185b" class="color000 svgShape"></rect><path d="M19 4H5a3 3 0 0 0-3 3v10a3 3 0 0 0 3 3h14a3 3 0 0 0 3-3V7a3 3 0 0 0-3-3zm-.67 2L12 10.75 5.67 6zM19 18H5a1 1 0 0 1-1-1V7.25l7.4 5.55a1 1 0 0 0 .6.2 1 1 0 0 0 .6-.2L20 7.25V17a1 1 0 0 1-1 1z" fill="#c2185b" class="color000 svgShape"></path></g></g></svg></g></svg>