<svg id="SvgjsSvg1001" width="360" height="360" xmlns="http://www.w3.org/2000/svg" version="1.1" xmlns:xlink="http://www.w3.org/1999/xlink" xmlns:svgjs="http://svgjs.com/svgjs"><defs id="SvgjsDefs1002"></defs><g id="SvgjsG1008" transform="matrix(1,0,0,1,0,0)"><svg xmlns="http://www.w3.org/2000/svg" viewBox="0 0 459.94 429.61" width="360" height="360"><g data-name="Layer 2" fill="#000000" class="color000 svgShape"><g data-name="Layer 1" fill="#000000" class="color000 svgShape"><path fill="#ba97a5" d="M140.17,114l-.85,225.45-68.78-.22-.1,30.3A34.39,34.39,0,0,0,104.72,404h0l34.39.11,198.74.64a34.39,34.39,0,0,0,34.5-34.28l1.06-290.14-198.74-.64A34.39,34.39,0,0,0,140.17,114Z" class="colorffcd52 svgShape"></path><path fill="#a57789" d="M70.44,339.31h68.78a0,0,0,0,1,0,0v30.3A34.39,34.39,0,0,1,104.83,404h0a34.39,34.39,0,0,1-34.39-34.39v-30.3a0,0,0,0,1,0,0Z" transform="rotate(.18 108.825 381.802)" class="colorfda01f svgShape"></path><ellipse cx="68.1" cy="369.99" fill="none" stroke="#b996a4" stroke-linecap="round" stroke-linejoin="round" rx="19.68" ry="34.1" class="colorStrokeff5061 svgStroke"></ellipse><path fill="#835768" d="M51.22,385c-2.8-6.46-.68-10.42-.68-15,0-9.63,3.22-20.54,9-27.38A52.88,52.88,0,0,1,62,357.74C62,367.37,57,378.14,51.22,385Z" class="colorff5061 svgShape"></path><ellipse cx="37.82" cy="357.81" fill="#ffffff" rx="19.68" ry="34.1" class="colorfff svgShape"></ellipse><path fill="#835768" d="M86.14,371.06c0,3.8,1.55,6.84-.56,12-9-7.21-15.84-19.31-15.84-31.78a55.48,55.48,0,0,1,1.91-13C80.69,345.41,86.14,358.59,86.14,371.06Z" class="colorff5061 svgShape"></path><ellipse cx="92.94" cy="349.31" fill="#ffffff" rx="19.68" ry="34.1" class="colorfff svgShape"></ellipse><line x1="68.1" x2="68.1" y1="404.09" y2="352.95" fill="none" stroke="#b996a4" stroke-linecap="round" stroke-linejoin="round" class="colorStrokeff5061 svgStroke"></line><line x1="68.1" x2="76.07" y1="372.98" y2="363.87" fill="none" stroke="#b996a4" stroke-linecap="round" stroke-linejoin="round" class="colorStrokeff5061 svgStroke"></line><line x1="68.1" x2="79.59" y1="383.86" y2="370.73" fill="none" stroke="#b996a4" stroke-linecap="round" stroke-linejoin="round" class="colorStrokeff5061 svgStroke"></line><line x1="68.1" x2="79.96" y1="395.07" y2="381.51" fill="none" stroke="#b996a4" stroke-linecap="round" stroke-linejoin="round" class="colorStrokeff5061 svgStroke"></line><line x1="68.1" x2="58.44" y1="373" y2="361.95" fill="none" stroke="#b996a4" stroke-linecap="round" stroke-linejoin="round" class="colorStrokeff5061 svgStroke"></line><line x1="68.1" x2="56.24" y1="383.88" y2="370.32" fill="none" stroke="#b996a4" stroke-linecap="round" stroke-linejoin="round" class="colorStrokeff5061 svgStroke"></line><line x1="68.1" x2="56.24" y1="395.09" y2="381.53" fill="none" stroke="#b996a4" stroke-linecap="round" stroke-linejoin="round" class="colorStrokeff5061 svgStroke"></line><ellipse cx="92.94" cy="349.31" fill="none" stroke="#956377" stroke-miterlimit="10" rx="19.68" ry="34.1" class="colorStroke008ef8 svgStroke"></ellipse><polyline fill="none" stroke="#008ef8" stroke-linecap="round" stroke-linejoin="round" points="92.94 332.27 92.94 383.4 92.94 404.22"></polyline><line x1="92.94" x2="102.59" y1="352.3" y2="341.27" fill="none" stroke="#956377" stroke-linecap="round" stroke-linejoin="round" class="colorStroke008ef8 svgStroke"></line><line x1="92.94" x2="104.8" y1="363.18" y2="349.62" fill="none" stroke="#956377" stroke-linecap="round" stroke-linejoin="round" class="colorStroke008ef8 svgStroke"></line><line x1="92.94" x2="104.8" y1="374.39" y2="360.83" fill="none" stroke="#956377" stroke-linecap="round" stroke-linejoin="round" class="colorStroke008ef8 svgStroke"></line><line x1="92.94" x2="83.27" y1="352.32" y2="341.27" fill="none" stroke="#956377" stroke-linecap="round" stroke-linejoin="round" class="colorStroke008ef8 svgStroke"></line><line x1="92.94" x2="81.08" y1="363.2" y2="349.64" fill="none" stroke="#956377" stroke-linecap="round" stroke-linejoin="round" class="colorStroke008ef8 svgStroke"></line><line x1="92.94" x2="81.08" y1="374.41" y2="360.85" fill="none" stroke="#956377" stroke-linecap="round" stroke-linejoin="round" class="colorStroke008ef8 svgStroke"></line><ellipse cx="37.82" cy="357.81" fill="none" stroke="#ba97a5" stroke-linecap="round" stroke-linejoin="round" rx="19.68" ry="34.1" class="colorStrokeffcd52 svgStroke"></ellipse><polyline fill="none" stroke="#ffcd52" stroke-linecap="round" stroke-linejoin="round" points="37.82 340.77 37.82 391.91 37.82 404.22"></polyline><line x1="37.82" x2="47.47" y1="360.8" y2="349.77" fill="none" stroke="#ba97a5" stroke-linecap="round" stroke-linejoin="round" class="colorStrokeffcd52 svgStroke"></line><line x1="37.82" x2="49.68" y1="371.68" y2="358.12" fill="none" stroke="#ba97a5" stroke-linecap="round" stroke-linejoin="round" class="colorStrokeffcd52 svgStroke"></line><line x1="37.82" x2="49.68" y1="382.89" y2="369.33" fill="none" stroke="#ba97a5" stroke-linecap="round" stroke-linejoin="round" class="colorStrokeffcd52 svgStroke"></line><line x1="37.82" x2="28.16" y1="360.82" y2="349.77" fill="none" stroke="#ba97a5" stroke-linecap="round" stroke-linejoin="round" class="colorStrokeffcd52 svgStroke"></line><line x1="37.82" x2="25.96" y1="371.7" y2="358.14" fill="none" stroke="#ba97a5" stroke-linecap="round" stroke-linejoin="round" class="colorStrokeffcd52 svgStroke"></line><line x1="37.82" x2="25.96" y1="382.92" y2="369.35" fill="none" stroke="#ba97a5" stroke-linecap="round" stroke-linejoin="round" class="colorStrokeffcd52 svgStroke"></line><rect width="18.03" height="103.59" x="390.8" y="331.67" fill="#956377" transform="rotate(-38.51 399.828 383.478)" class="color008ef8 svgShape"></rect><path fill="#754e5d" d="M389.19,384.59l.18.23,9.53,12c5.09-9.15,1.36-25.12.55-28.26l-11-13.77S396.47,374.92,389.19,384.59Z" class="color0234c1 svgShape"></path><rect width="106.47" height="79.6" x="95.82" y="221.2" fill="none" stroke="#754e5d" stroke-miterlimit="10" rx="3" class="colorStroke0234c1 svgStroke"></rect><rect width="96.93" height="69.41" x="100.58" y="226.29" fill="#956377" rx="3" class="color008ef8 svgShape"></rect><rect width="29.18" height="59.12" x="161.99" y="231.22" fill="#e3d5db" rx="3" class="colorc1e3f7 svgShape"></rect><rect width="47.35" height="20.24" x="108.81" y="270.11" fill="#e3d5db" rx="3" class="colorc1e3f7 svgShape"></rect><rect width="47.35" height="7.29" x="108.81" y="231.22" fill="#e3d5db" rx="1" class="colorc1e3f7 svgShape"></rect><rect width="18.79" height="18.79" x="109.68" y="245.01" fill="#e3d5db" rx="3.66" class="colorc1e3f7 svgShape"></rect><rect width="18.79" height="18.79" x="135.84" y="245.01" fill="#e3d5db" rx="3.66" class="colorc1e3f7 svgShape"></rect><rect width="106.47" height="79.6" x="321.75" y="46.46" fill="none" stroke="#754e5d" stroke-miterlimit="10" rx="3" class="colorStroke0234c1 svgStroke"></rect><rect width="96.93" height="69.41" x="326.52" y="51.56" fill="#956377" rx="3" class="color008ef8 svgShape"></rect><rect width="29.18" height="59.12" x="387.93" y="56.49" fill="#e3d5db" rx="3" class="colorc1e3f7 svgShape"></rect><rect width="47.35" height="20.24" x="334.75" y="95.37" fill="#e3d5db" rx="3" class="colorc1e3f7 svgShape"></rect><rect width="47.35" height="7.29" x="334.75" y="56.49" fill="#e3d5db" rx="1" class="colorc1e3f7 svgShape"></rect><rect width="18.79" height="18.79" x="335.62" y="70.27" fill="#e3d5db" rx="3.66" class="colorc1e3f7 svgShape"></rect><rect width="18.79" height="18.79" x="361.77" y="70.27" fill="#e3d5db" rx="3.66" class="colorc1e3f7 svgShape"></rect><path fill="#ba97a5" d="M310.27,313.52,374.14,145l68.79.23.09-30.31a34.39,34.39,0,0,0-34.28-34.5h0l-34.39-.11-198.74-.64A34.39,34.39,0,0,0,141.11,114l-1.06,290.14Z" class="colorffcd52 svgShape"></path><path fill="#a57789" d="M374.25,80.44H443a0,0,0,0,1,0,0v30.3a34.39,34.39,0,0,1-34.39,34.39h0a34.39,34.39,0,0,1-34.39-34.39V80.44a0,0,0,0,1,0,0Z" transform="rotate(-179.82 408.633 112.803)" class="colorfda01f svgShape"></path><path fill="#835768" d="M358.55,331.61a52.24,52.24,0,0,1-5.08,3.56l9.25,11.63,9.69-7.72-9.25-11.62A54,54,0,0,1,358.55,331.61Z" class="colorff5061 svgShape"></path><circle cx="316.09" cy="277.36" r="61.88" fill="#a97f8f" class="color489ee0 svgShape"></circle><rect width="76.85" height="60.71" x="177.82" y="325.41" fill="#956377" rx="7" transform="rotate(1.81 215.833 354.986)" class="color008ef8 svgShape"></rect><rect width="76.85" height="60.71" x="165.81" y="133.9" fill="#956377" rx="7" transform="rotate(1.81 203.633 163.95)" class="color008ef8 svgShape"></rect><line x1="244.85" x2="160.3" y1="264.34" y2="261" fill="none" stroke="#926275" stroke-linecap="round" stroke-linejoin="round" stroke-width="2" class="colorStroke0850ec svgStroke"></line><line x1="244.59" x2="160.28" y1="288.08" y2="286.05" fill="none" stroke="#926275" stroke-linecap="round" stroke-linejoin="round" stroke-width="2" class="colorStroke0850ec svgStroke"></line><line x1="251.36" x2="175.57" y1="309.2" y2="309.09" fill="none" stroke="#926275" stroke-linecap="round" stroke-linejoin="round" stroke-width="2" class="colorStroke0850ec svgStroke"></line><line x1="256.52" x2="348.95" y1="140.04" y2="143.69" fill="none" stroke="#926275" stroke-linecap="round" stroke-linejoin="round" stroke-width="2" class="colorStroke0850ec svgStroke"></line><line x1="256.16" x2="348.05" y1="164.04" y2="167.68" fill="none" stroke="#926275" stroke-linecap="round" stroke-linejoin="round" stroke-width="2" class="colorStroke0850ec svgStroke"></line><line x1="271.82" x2="349.12" y1="186.77" y2="189.6" fill="none" stroke="#926275" stroke-linecap="round" stroke-linejoin="round" stroke-width="2" class="colorStroke0850ec svgStroke"></line><path fill="#926275" d="M443.22,174.11a78.74,78.74,0,0,1,1.21,7.89c.3,2.63.48,5.27.65,7.91s.22,5.29.2,7.94a76.2,76.2,0,0,1-.35,8,76.33,76.33,0,0,1-1.2-7.89c-.31-2.64-.49-5.28-.65-7.92s-.22-5.29-.21-7.94S443,176.77,443.22,174.11Z" class="color0850ec svgShape"></path><path fill="#926275" d="M459.94 189.11a79.18 79.18 0 01-7.89 1.21c-2.64.3-5.28.48-7.92.64s-5.29.23-7.94.21a78.83 78.83 0 01-8-.35 78.74 78.74 0 017.89-1.21c2.63-.3 5.27-.48 7.91-.64s5.29-.22 8-.21S457.27 188.84 459.94 189.11zM424.2 207.36a36.56 36.56 0 011.06 5.3c.24 1.77.42 3.54.51 5.32s.12 3.57.07 5.36a36.6 36.6 0 01-.49 5.38 36.6 36.6 0 01-1.07-5.3c-.24-1.77-.42-3.55-.51-5.33s-.11-3.56-.06-5.35A36.35 36.35 0 01424.2 207.36z" class="color0850ec svgShape"></path><path fill="#926275" d="M435.45 217.46a37.7 37.7 0 01-5.3 1.07c-1.77.24-3.54.41-5.32.51s-3.57.11-5.36.06a36.6 36.6 0 01-5.38-.49 36.56 36.56 0 015.3-1.06c1.77-.24 3.55-.42 5.33-.51s3.56-.12 5.35-.07A39.26 39.26 0 01435.45 217.46zM24.26 215c.55 2.63.91 5.26 1.2 7.89s.49 5.28.65 7.92.22 5.29.21 7.94a78.84 78.84 0 01-.36 8c-.55-2.62-.91-5.25-1.2-7.88s-.49-5.28-.65-7.92-.22-5.29-.2-7.94A76.2 76.2 0 0124.26 215z" class="color0850ec svgShape"></path><path fill="#926275" d="M41 230a78.7 78.7 0 01-7.89 1.2c-2.63.3-5.27.49-7.92.65s-5.29.23-7.94.21a79 79 0 01-8-.35 78.74 78.74 0 017.89-1.21c2.63-.3 5.27-.48 7.92-.64s5.29-.23 7.94-.21A79 79 0 0141 230zM43.12 247.42a36.56 36.56 0 011.06 5.3c.25 1.77.42 3.55.51 5.33s.12 3.56.07 5.35a36.35 36.35 0 01-.49 5.38 38 38 0 01-1.07-5.3c-.24-1.77-.41-3.55-.5-5.33s-.12-3.56-.07-5.35A36.47 36.47 0 0143.12 247.42z" class="color0850ec svgShape"></path><path fill="#926275" d="M54.37 257.53a37.53 37.53 0 01-5.29 1.06c-1.78.24-3.55.42-5.33.51s-3.56.12-5.35.07a36.35 36.35 0 01-5.38-.49 34.93 34.93 0 015.29-1.07c1.78-.24 3.55-.42 5.33-.51S47.2 257 49 257A36.35 36.35 0 0154.37 257.53zM247.12 0c.55 2.62.91 5.25 1.2 7.89s.49 5.27.65 7.92.22 5.29.21 7.94-.08 5.3-.35 8a78.74 78.74 0 01-1.21-7.89c-.3-2.63-.49-5.27-.65-7.92s-.22-5.29-.2-7.94A79 79 0 01247.12 0z" class="color0850ec svgShape"></path><path fill="#926275" d="M263.83 15c-2.62.55-5.25.91-7.89 1.2s-5.27.49-7.91.65-5.29.22-7.95.21a79 79 0 01-8-.36c2.62-.55 5.25-.91 7.89-1.2s5.28-.49 7.92-.65 5.29-.22 7.94-.2A76 76 0 01263.83 15zM266 32.4a37.7 37.7 0 011.07 5.3c.24 1.77.41 3.54.51 5.32s.11 3.57.06 5.35a36.61 36.61 0 01-.49 5.39 36.56 36.56 0 01-1.06-5.3c-.25-1.77-.42-3.55-.51-5.33s-.12-3.56-.07-5.35A36.35 36.35 0 01266 32.4z" class="color0850ec svgShape"></path><path fill="#926275" d="M277.24,42.5a38,38,0,0,1-5.3,1.07c-1.77.24-3.55.41-5.33.51s-3.56.11-5.35.06a36.35,36.35,0,0,1-5.38-.49,36.29,36.29,0,0,1,5.3-1.06c1.77-.25,3.54-.42,5.32-.51s3.57-.12,5.35-.07A36.61,36.61,0,0,1,277.24,42.5Z" class="color0850ec svgShape"></path><line x1=".5" x2="390.32" y1="404.22" y2="404.22" fill="none" stroke="#654350" stroke-linecap="round" stroke-linejoin="round" class="colorStroke545454 svgStroke"></line><circle cx="315.73" cy="276.91" r="72" fill="#e3d5db" class="colorc1e3f7 svgShape"></circle><circle cx="316.09" cy="277.36" r="61.88" fill="#956377" class="color008ef8 svgShape"></circle><path fill="#754e5d" d="M254.67 269.75l57.46.8.16-12-54.9-.76A62.79 62.79 0 00254.67 269.75zM256.37 293.66l58.17.8.17-12-60.37-.84A62.13 62.13 0 00256.37 293.66zM263.88 310.58a59.64 59.64 0 004.11 5.71l45.58.64.4-12-53.63-.73A60.74 60.74 0 00263.88 310.58z" class="color0234c1 svgShape"></path></g></g></svg></g></svg>